#!OML:ASF E:\Style4\Style4.ASF
:FULLY-SPECIFIED
:DEGREES
818
root 0.691358 17.3293 -2.04974 1.39654 -3.01836 2.76028
lowerback 11.196 2.54349 -1.88791
upperback 6.93091 3.1809 -0.315342
thorax 0.877503 1.53898 0.406811
lowerneck 4.35939 -4.37861 -6.10214
upperneck -0.947532 -6.06439 4.63587
head -0.702733 -3.07011 2.62673
rclavicle -2.28602e-015 -3.97569e-015
rhumerus 23.427 5.45582 -33.1899
rradius 77.0138
rwrist -23.1541
rhand -24.5457 29.9374
rfingers 7.12502
rthumb 1.95035 -0.0334286
lclavicle -2.28602e-015 -3.97569e-015
lhumerus 21.1609 -15.7257 33.4074
lradius 86.8282
lwrist 24.7411
lhand -17.0112 22.1905
lfingers 7.12502
lthumb 9.22457 51.9688
rfemur -24.3176 1.86493 12.9289
rtibia 43.7367
rfoot -19.3148 -11.0953
rtoes -14.7888
lfemur -22.3492 2.09433 -24.0126
ltibia 42.0905
lfoot -21.6615 6.43231
ltoes -10.9632
819
root 0.692562 17.3348 -2.0369 1.44023 -3.11716 2.67238
lowerback 11.1033 2.56272 -1.7523
upperback 6.89757 3.22036 -0.315246
thorax 0.898717 1.56275 0.330491
lowerneck 4.15879 -4.36812 -6.09261
upperneck -0.66272 -6.04403 4.62783
head -0.578994 -3.05969 2.60914
rclavicle 1.65985e-014 -9.54166e-015
rhumerus 22.9478 5.28134 -33.4772
rradius 76.5984
rwrist -22.5173
rhand -24.3589 29.8661
rfingers 7.12502
rthumb 2.1307 -0.103021
lclavicle 1.65985e-014 -9.54166e-015
lhumerus 20.5901 -15.9276 33.452
lradius 86.5392
lwrist 24.0434
lhand -17.1096 22.1731
lfingers 7.12502
lthumb 9.12961 51.9555
rfemur -24.2838 1.96097 13.0192
rtibia 43.6382
rfoot -19.349 -11.0512
rtoes -14.8297
lfemur -22.304 2.1484 -23.9207
ltibia 42.0213
lfoot -21.731 6.59796
ltoes -11.5867
820
root 0.694731 17.3404 -2.02538 1.45545 -3.21944 2.67147
lowerback 11.0253 2.58197 -1.72589
upperback 6.87375 3.24964 -0.331037
thorax 0.917649 1.57842 0.29938
lowerneck 4.04304 -4.34253 -6.1072
upperneck -0.477063 -6.00722 4.65855
head -0.500802 -3.04162 2.61405
rclavicle 5.63555e-014 -2.22639e-014
rhumerus 22.5163 5.19222 -33.7364
rradius 76.1526
rwrist -21.8062
rhand -24.6067 30.0319
rfingers 7.12502
rthumb 1.8914 0.0605142
lclavicle 5.63555e-014 -2.22639e-014
lhumerus 19.9199 -16.029 33.6556
lradius 86.1353
lwrist 23.302
lhand -17.2861 21.7846
lfingers 7.12502
lthumb 8.95929 51.5743
rfemur -24.2278 2.03936 13.007
rtibia 43.5324
rfoot -19.3096 -11.0189
rtoes -14.6463
lfemur -22.2214 2.18869 -23.9385
ltibia 41.9447
lfoot -21.7196 6.66753
ltoes -11.6798
821
root 0.693088 17.3465 -2.01608 1.45867 -3.23426 2.75895
lowerback 10.9731 2.5866 -1.84925
upperback 6.83959 3.24588 -0.337489
thorax 0.904096 1.57323 0.363299
lowerneck 4.00872 -4.33299 -6.14506
upperneck -0.358093 -5.99616 4.68839
head -0.455781 -3.0367 2.62721
rclavicle 1.99779e-014 -5.56597e-015
rhumerus 22.0475 5.15031 -33.9987
rradius 75.7586
rwrist -21.3211
rhand -25.0563 30.2137
rfingers 7.12502
rthumb 1.45722 0.238966
lclavicle 1.99779e-014 -5.56597e-015
lhumerus 19.1739 -16.0641 33.9743
lradius 85.6926
lwrist 22.5455
lhand -17.2208 21.2214
lfingers 7.12502
lthumb 9.02231 51.0085
rfemur -24.1476 2.06021 12.9133
rtibia 43.4297
rfoot -19.2677 -11.0449
rtoes -14.5713
lfemur -22.1221 2.14415 -24.04
ltibia 41.8422
lfoot -21.63 6.70679
ltoes -11.4069
822
root 0.690589 17.352 -2.00834 1.4826 -3.19653 2.76077
lowerback 10.9585 2.55016 -1.90092
upperback 6.77375 3.19297 -0.314146
thorax 0.840045 1.54559 0.420431
lowerneck 3.92801 -4.30554 -6.1812
upperneck -0.202062 -5.95987 4.66192
head -0.394223 -3.01832 2.61908
rclavicle 3.20043e-014 -1.90833e-014
rhumerus 21.6117 5.16958 -34.2985
rradius 75.3799
rwrist -21.0958
rhand -25.275 30.278
rfingers 7.12502
rthumb 1.24595 0.30185
lclavicle 3.20043e-014 -1.90833e-014
lhumerus 18.5111 -16.1381 34.215
lradius 85.3995
lwrist 21.9901
lhand -16.9718 21.0086
lfingers 7.12502
lthumb 9.26259 50.7851
rfemur -24.0751 2.0783 12.9216
rtibia 43.3275
rfoot -19.277 -11.0742
rtoes -14.6529
lfemur -22.0512 2.06218 -24.0286
ltibia 41.7239
lfoot -21.6398 6.73618
ltoes -11.3136
